<svg xmlns="http://www.w3.org/2000/svg" xmlns:xlink="http://www.w3.org/1999/xlink" height="125.8" preserveAspectRatio="xMidYMid meet" version="1.0" viewBox="0.0 -1.8 126.0 125.8" width="126" zoomAndPan="magnify"><g id="change1_1"><path d="M49.622,32.642c0.54,0.094,1.061-0.267,1.157-0.81c0.097-0.544-0.266-1.063-0.81-1.16c-0.135-0.023-3.33-0.565-5.742,1.145 c-0.451,0.319-0.557,0.944-0.237,1.394c0.194,0.275,0.503,0.422,0.816,0.422c0.2,0,0.401-0.06,0.577-0.184 C47.096,32.235,49.565,32.633,49.622,32.642z" fill="inherit"/><path d="M50.94,40.78c-0.553,0-1,0.448-1,1c0,0.441-0.618,0.934-1.505,0.934s-1.505-0.492-1.505-0.934c0-0.552-0.447-1-1-1 s-1,0.448-1,1c0,1.618,1.572,2.934,3.505,2.934s3.505-1.316,3.505-2.934C51.94,41.228,51.493,40.78,50.94,40.78z" fill="inherit"/><path d="M66.99,44.714c1.933,0,3.505-1.316,3.505-2.934c0-0.552-0.447-1-1-1s-1,0.448-1,1c0,0.441-0.618,0.934-1.505,0.934 s-1.505-0.492-1.505-0.934c0-0.552-0.447-1-1-1s-1,0.448-1,1C63.485,43.398,65.058,44.714,66.99,44.714z" fill="inherit"/><path d="M61.597,45.648c0-0.552-0.447-1-1-1h-5.768c-0.553,0-1,0.448-1,1s0.447,1,1,1h5.768 C61.149,46.648,61.597,46.2,61.597,45.648z" fill="inherit"/><path d="M121.827,64.953H76.266c-2.301,0-4.173,1.872-4.173,4.172v9.65c-2.45-1.567-5.037-2.891-7.614-3.855l0.002-6.326 c6.283-2.316,11.233-7.339,13.316-10.832c0.558-0.935,1.082-2.08,1.567-3.393c2.838-0.055,5.502-2.128,6.663-5.303 c1.459-3.992-0.044-8.321-3.347-9.746c1.244-2.936,2.422-7.164,1.984-12.136c-0.199-2.245-0.609-6.879-3.911-10.985l2.75,0.461 c0.395,0.068,0.794-0.111,1.009-0.45c0.216-0.339,0.207-0.774-0.021-1.104C83.29,13.368,72.368-1.815,58.531,0.18 c-1.979,0.287-3.93,0.921-5.799,1.886c-1.637-0.233-3.252-0.215-4.802,0.053C33.464,4.618,28.12,28,27.899,28.994 c-0.092,0.417,0.091,0.847,0.455,1.07c0.365,0.222,0.83,0.19,1.16-0.084l3.059-2.537c-0.493,1.823-0.779,3.695-0.852,5.597 c-0.09,2.341,0.531,4.281,1.031,5.84c0.044,0.136,0.074,0.252,0.116,0.384c-3.389,1.368-4.947,5.761-3.469,9.803 c1.161,3.176,3.825,5.249,6.664,5.303c0.485,1.314,1.009,2.458,1.567,3.393c2.084,3.493,7.034,8.516,13.316,10.832l0.003,6.326 c-7.664,2.867-23.35,11.748-29.745,37.308c-0.006,0.02-0.02,0.034-0.025,0.054c-0.004,0.018,0.002,0.035-0.002,0.053 c-0.254,1.022-0.493,2.071-0.716,3.147c-0.001,0.002-0.002,0.003-0.003,0.005c-0.004,0.011-0.001,0.022-0.005,0.032 c-0.482,2.327-0.899,4.767-1.221,7.356c-0.035,0.285,0.053,0.571,0.243,0.786c0.189,0.215,0.462,0.338,0.749,0.338h74.977 c0.287,0,0.56-0.123,0.749-0.338c0.19-0.215,0.278-0.501,0.243-0.785c-0.314-2.533-0.727-4.982-1.22-7.358 c-0.003-0.01-0.001-0.021-0.005-0.031c-0.001-0.002-0.003-0.004-0.004-0.006c-0.221-1.063-0.459-2.111-0.715-3.141 c-0.003-0.02,0.003-0.038-0.002-0.058c-0.006-0.026-0.024-0.044-0.031-0.069c-1.115-4.452-2.564-8.588-4.328-12.386h23.538v17.338 H98.085c-0.553,0-1,0.448-1,1s0.447,1,1,1h16.342c0.553,0,1-0.448,1-1V99.828h6.4c2.301,0,4.173-1.872,4.173-4.172v-26.53 C126,66.825,124.128,64.953,121.827,64.953z M84.147,48.38c-0.752,2.059-2.358,3.521-4.087,3.89 c0.916-3.062,1.644-6.799,2.113-10.949C84.301,42.465,85.198,45.507,84.147,48.38z M30.645,26.445 c1.877-6.326,7.213-20.556,17.627-22.355c1.437-0.248,2.943-0.248,4.475,0.001c0.218,0.037,0.441-0.001,0.635-0.106 c1.754-0.943,3.583-1.557,5.438-1.825c10.225-1.48,19.096,7.883,22.526,12.111l-3.28-0.55c-0.438-0.074-0.883,0.159-1.073,0.567 c-0.188,0.41-0.08,0.895,0.265,1.185c0.651,0.548,1.256,1.156,1.796,1.808c3.052,3.674,3.435,8.001,3.619,10.084 c0.398,4.517-0.66,8.385-1.794,11.09c-3.912-2.637-7.583-5.656-10.923-8.985c-3.345-3.335-6.387-7.009-9.041-10.921 c-0.189-0.28-0.503-0.438-0.827-0.438c-0.113,0-0.228,0.019-0.339,0.059c-0.43,0.155-0.7,0.582-0.656,1.036 c0.272,2.852,0.701,7.332,0.987,10.324c-1.095-1.367-2.427-3.119-3.442-4.721c-1.773-2.795-3.092-5.994-3.921-9.507 c-0.098-0.414-0.445-0.72-0.868-0.765c-0.416-0.037-0.826,0.182-1.009,0.565c-2.085,4.389-4.573,8.615-7.396,12.562 c-2.648,3.703-5.619,7.2-8.847,10.414c-0.459-1.436-0.948-3.056-0.876-4.959c0.11-2.88,0.751-5.687,1.902-8.342 c0.185-0.424,0.054-0.92-0.316-1.198c-0.371-0.278-0.883-0.266-1.239,0.03L30.645,26.445z M31.278,48.38 c-1.05-2.874-0.153-5.916,1.975-7.06c0.469,4.15,1.197,7.887,2.113,10.95C33.637,51.902,32.031,50.439,31.278,48.38z M39.347,56.739c-1.892-3.173-3.448-9.291-4.189-16.426c3.632-3.517,6.97-7.374,9.912-11.488c2.379-3.327,4.527-6.849,6.403-10.498 c0.861,2.735,2.025,5.267,3.474,7.55c0.612,0.966,5.334,7.58,6.257,7.74c0.292,0.05,0.589-0.03,0.814-0.22 c0.227-0.19,0.356-0.47,0.356-0.765c0-0.058,0-0.105-0.938-9.916c2.12,2.818,4.442,5.489,6.925,7.981 c-1.538-0.257-2.819-0.04-2.904-0.026c-0.544,0.097-0.906,0.616-0.81,1.16c0.097,0.543,0.611,0.908,1.159,0.81 c0.024-0.005,2.524-0.407,4.237,0.807c0.176,0.125,0.377,0.184,0.577,0.184c0.215,0,0.413-0.092,0.588-0.224 c2.834,2.564,5.867,4.912,9.049,7.021c-0.746,7.086-2.296,13.154-4.179,16.309c-2.562,4.297-9.814,11.115-18.365,11.115 C49.163,67.854,41.91,61.036,39.347,56.739z M57.713,69.854c1.642,0,3.235-0.238,4.767-0.638l-0.002,6.406 c0,0.026,0.01,0.049,0.012,0.074c0.001,0.017-0.006,0.033-0.004,0.05c0.275,2.21-0.351,4.368-1.72,5.918 c-0.918,1.04-2.06,1.66-3.054,1.66s-2.135-0.62-3.053-1.659c-1.369-1.551-1.996-3.708-1.72-5.919 c0.002-0.017-0.005-0.033-0.004-0.05c0.002-0.025,0.012-0.048,0.012-0.074l-0.002-6.406C54.478,69.616,56.071,69.854,57.713,69.854 z M50.895,77.089c0.071,2.209,0.854,4.301,2.266,5.9c1.311,1.484,2.97,2.335,4.552,2.335s3.242-0.852,4.553-2.336 c1.412-1.599,2.194-3.689,2.266-5.897c2.042,0.818,4.696,2.108,7.561,4.071v14.493c0,2.301,1.872,4.172,4.173,4.172h0.998 c-0.256,4.147-0.314,8.334-0.175,12.532c0.002,0.027-0.001,0.053,0.003,0.079c0.038,1.131,0.09,2.262,0.157,3.394 c0,0.034,0.002,0.065,0.006,0.099c0.121,2.024,0.287,4.048,0.5,6.069H37.669c0.213-2.025,0.386-4.052,0.506-6.079 c0.002-0.025,0.005-0.048,0.005-0.073c0.067-1.137,0.116-2.274,0.154-3.41c0.004-0.023,0.001-0.046,0.003-0.069 c0.216-6.528-0.039-13.039-0.779-19.457c-0.234-2.04-0.526-4.093-0.857-6.118C41.866,81.437,47.183,78.576,50.895,77.089z M92.851,115.149c-2.05,0.647-4.168,1.012-6.317,1.051c-2.496,0.041-4.951-0.346-7.324-1.12c-0.028-0.51-0.057-1.019-0.079-1.529 c2.293,0.508,4.639,0.781,7.005,0.781c0.166,0,0.333-0.001,0.5-0.004c1.978-0.03,3.949-0.253,5.881-0.641 C92.63,114.171,92.744,114.657,92.851,115.149z M22.902,113.685c1.935,0.389,3.91,0.612,5.89,0.643 c0.167,0.002,0.334,0.004,0.5,0.004c2.362,0,4.704-0.271,6.994-0.778c-0.022,0.508-0.037,1.017-0.065,1.525 c-2.378,0.776-4.846,1.166-7.328,1.121c-2.149-0.038-4.268-0.404-6.318-1.051C22.683,114.658,22.788,114.164,22.902,113.685z M35.572,93.141c0.697,6.051,0.961,12.186,0.796,18.34c-2.464,0.59-5.014,0.882-7.545,0.847c-1.825-0.028-3.645-0.23-5.429-0.582 c2.726-10.312,7.005-17.728,11.579-23.04C35.195,90.181,35.402,91.664,35.572,93.141z M22.173,117.117 c2.171,0.666,4.412,1.042,6.685,1.083c0.146,0.002,0.291,0.004,0.438,0.004c2.301,0,4.573-0.343,6.784-0.986 c-0.112,1.595-0.249,3.19-0.419,4.783H21.363C21.594,120.308,21.871,118.69,22.173,117.117z M79.763,122.001 c-0.17-1.594-0.314-3.19-0.426-4.786c2.213,0.645,4.489,0.989,6.794,0.989c0.146,0,0.292-0.001,0.438-0.004 c2.272-0.041,4.51-0.417,6.681-1.081c0.307,1.595,0.586,3.216,0.813,4.883H79.763z M92.029,111.746 c-1.782,0.352-3.601,0.554-5.425,0.582c-2.553,0.039-5.083-0.256-7.543-0.846c-0.105-3.904-0.035-7.797,0.207-11.654h8.415 C89.445,103.468,90.895,107.453,92.029,111.746z M124,95.655c0,1.198-0.975,2.172-2.173,2.172H76.266 c-1.198,0-2.173-0.975-2.173-2.172v-26.53c0-1.198,0.975-2.172,2.173-2.172h45.562c1.198,0,2.173,0.975,2.173,2.172V95.655z" fill="inherit"/><path d="M94.755,71.721H77.899c-0.553,0-1,0.448-1,1v18.762c0,0.552,0.447,1,1,1h16.855c0.553,0,1-0.448,1-1V72.721 C95.755,72.169,95.308,71.721,94.755,71.721z M86.29,83.385c-1.504,0-2.728-1.249-2.728-2.784s1.224-2.784,2.728-2.784 s2.728,1.249,2.728,2.784S87.794,83.385,86.29,83.385z M84.692,85.084c0.502,0.184,1.035,0.301,1.599,0.301 c0.584,0,1.137-0.122,1.654-0.319c0.546,0.451,1.515,1.761,1.665,5.417h-6.563C83.196,86.869,84.151,85.546,84.692,85.084z M93.755,90.484h-2.146c-0.14-3.618-1.035-5.529-1.948-6.537c0.837-0.863,1.357-2.043,1.357-3.345c0-2.638-2.121-4.784-4.728-4.784 s-4.728,2.146-4.728,4.784c0,1.323,0.534,2.522,1.395,3.389c-0.896,1.016-1.773,2.922-1.912,6.494h-2.146V73.721h14.855V90.484z" fill="inherit"/><path d="M121.155,69.788h-21.147c-0.553,0-1,0.448-1,1v3.868c0,0.552,0.447,1,1,1h21.147c0.553,0,1-0.448,1-1v-3.868 C122.155,70.236,121.708,69.788,121.155,69.788z M120.155,73.655h-19.147v-1.868h19.147V73.655z" fill="inherit"/><path d="M104.813,81.457h15.38c0.553,0,1-0.448,1-1s-0.447-1-1-1h-15.38c-0.553,0-1,0.448-1,1S104.261,81.457,104.813,81.457z" fill="inherit"/><path d="M104.813,88.225h15.38c0.553,0,1-0.448,1-1s-0.447-1-1-1h-15.38c-0.553,0-1,0.448-1,1S104.261,88.225,104.813,88.225z" fill="inherit"/><path d="M121.155,92.993H99.047c-0.553,0-1,0.448-1,1s0.447,1,1,1h22.108c0.553,0,1-0.448,1-1S121.708,92.993,121.155,92.993z" fill="inherit"/><path d="M98.085,5.071h15.342v17.371c0,0.552,0.447,1,1,1s1-0.448,1-1V4.071c0-0.552-0.447-1-1-1H98.085c-0.553,0-1,0.448-1,1 S97.532,5.071,98.085,5.071z" fill="inherit"/><path d="M17.341,117.166H2V99.795c0-0.552-0.447-1-1-1s-1,0.448-1,1v18.371c0,0.552,0.447,1,1,1h16.341c0.553,0,1-0.448,1-1 S17.894,117.166,17.341,117.166z" fill="inherit"/><path d="M17.341,3.071H1c-0.553,0-1,0.448-1,1v18.371c0,0.552,0.447,1,1,1s1-0.448,1-1V5.071h15.341c0.553,0,1-0.448,1-1 S17.894,3.071,17.341,3.071z" fill="inherit"/></g></svg>